/* XPM */  
static char *drawxtl_xpm[] = {    
(char*)"32 32 6 1",
(char*)" 	c None",
(char*)"!	c white",
(char*)"#	c #C0C0C0",
(char*)"$	c #808080",
(char*)"%	c #FF0000",
(char*)"&	c #800000",
(char*)"!!!!!!!!!!!!!!!!!!!!!!!!!!!!!!!!",
(char*)"!!!!!!!####$%$!!!!!!!!!!!!!!!!!!",
(char*)"!!!!!$%%%%%%%#!!!!!!!!!##$%%%%$!",
(char*)"!!!!#&%%%%%%%#!!!!!!!!$%%%%%%%#!",
(char*)"!!!!&%%%%%%%%!!!!!!!!$&%%%%%%%#!",
(char*)"!!!$&%%%%%%%%!!!!!!!#&&%%%%%%%#!",
(char*)"!!#&&%%%%%%%%#######&&%%%%%%%%!!",
(char*)"!!$&%%%%%%%%$!!!!!!&&&%%%%%%%%!!",
(char*)"!!$&%%%%%%%%$###!!!&&%%%%%%%%%!!",
(char*)"!!&&%%%%%&&$!!!!!!#&&%%%%%%%&#!!",
(char*)"!#&%%%&&&&&!!!!!!!#%&%%%%&&&#!!!",
(char*)"!#%%&&&&&&$%%%$##!$%%%&&&&&#!!!!",
(char*)"!$%%%&&&&##%%%%%%%%%%%%&&&#!!!!!",
(char*)"!$$$$##!#!#&%%%%%%%%&&&$$#!!!!!!",
(char*)"!!!!!!#!#!!&%%%%%%%%#!!#!#!!!!!!",
(char*)"!!!!!!#!#!!&%%%%%%%%#!!#!#!!!!!!",
(char*)"!!!!!!#!#!!$&%%%%%%%$!!#!#!!!!!!",
(char*)"!!!!!!#!#!!$&%%%%%%%%!!#!#!!!!!!",
(char*)"!!!!!!#!#!!$&&%%%%%%%!!#!#!!!!!!",
(char*)"!!!!!!##$%%%%&&&%%%%%!!#!###$%$!",
(char*)"!!!!!&%%%%%%%&&&&&%%%!!&%%%%%%$!",
(char*)"!!!!$&%%%%%%%#!!#$$&%#&%%%%%%%#!",
(char*)"!!!$&%%%%%%%%!!!!!!!#&&%%%%%%%#!",
(char*)"!!#&&%%%%%%%%!!!!!!#&&%%%%%%%%#!",
(char*)"!!$&&%%%%%%%%######&&&%%%%%%%%!!",
(char*)"!!&&%%%%%%%%$!!!!!!&&&%%%%%%%%!!",
(char*)"!!&&%%%%%%%%#!!!!##&&%%%%%%%%%!!",
(char*)"!#&&%%%%%&&#!!!!!!#&&%%%%%%&&#!!",
(char*)"!$%%%&&&&&#!!!!!!!$%&%%%&&&$!!!!",
(char*)"!$%%%&&&&#!!!!!!!!$%&%&&&&#!!!!!",
(char*)"!%%$$##!!!!!!!!!!!%%%&&$#!!!!!!!",
(char*)"!!!!!!!!!!!!!!!!!!$##!!!!!!!!!!!"};
Pixmap shapemask;                  // needed by XpmCreatePixmapFromData
